<?xml version="1.0" encoding="utf-8"?>
<!-- Generator: Adobe Illustrator 15.1.0, SVG Export Plug-In . SVG Version: 6.00 Build 0)  -->
<!DOCTYPE svg PUBLIC "-//W3C//DTD SVG 1.1//EN" "http://www.w3.org/Graphics/SVG/1.1/DTD/svg11.dtd">
<svg version="1.1" id="Layer_1" xmlns="http://www.w3.org/2000/svg" xmlns:xlink="http://www.w3.org/1999/xlink" x="0px" y="0px"
	 width="309.052px" height="365.435px" viewBox="0 128.67 309.052 365.435" enable-background="new 0 128.67 309.052 365.435"
	 xml:space="preserve">
<path fill="#6C100F" d="M300.138,308.793c-17.987-4.159-29.688,4.306-38.305,48.343c-5.451,31.615-23.236,57.199-43.957,57.522
	c-22.646,0.352-35.33-23.451-40.231-59.852c35.152-21.717,66.957-49.564,84.041-80.836c42.667-76.39,24.586-131.896-16.279-133.998
	c-47.447-2.446-124.842,58.571-125.72,169.419c0.06,7.316,0.317,14.308,0.715,20.836c-12.146,0.818-25.438-0.637-33.661-5.387
	c-37.599-22.129-15.933-63.731,9.714-73.578c0,0-37.816-55.777-70.042-24.157C-4.65,257.617-1.144,317.016,56.084,351.088
	c22.55,13.44,45.743,19.163,71.479,15.803l2.561,12.277l0.091-0.048c14.549,40.505,42.668,58.342,71.236,58.801
	c37.951,0.613,61.473-15.862,74.3-58.296c-1.124,89.144-36.523,86.422-45.645,81.916c-13.422-6.632,9.08,49.429,55.788,27.41
	c23.931-11.282,28.466-88.21,17.507-164.389C302.008,312.859,300.138,308.793,300.138,308.793z M171.259,292.638
	c4.601-89.698,32.152-139.984,63.416-137.933c31.124,1.39,34.262,64.126,8.178,108.279c-14.542,23.931-41.232,42.17-72.247,54.46
	C170.34,309.617,170.671,301.326,171.259,292.638z"/>
<path fill="#EFAD5F" d="M293.186,297.561c-17.988-4.159-29.688,4.306-38.305,48.343c-5.452,31.615-23.236,57.199-43.958,57.522
	c-22.645,0.352-35.329-23.452-40.23-59.852c35.152-21.717,66.957-49.565,84.04-80.836c42.668-76.39,24.587-131.897-16.279-133.998
	c-47.451-2.446-124.846,58.57-125.722,169.421c0.06,7.316,0.318,14.308,0.715,20.836c-12.146,0.819-25.438-0.637-33.661-5.387
	c-37.599-22.129-15.933-63.731,9.714-73.577c0,0-37.816-55.778-70.042-24.158c-31.06,30.512-27.557,89.911,29.672,123.98
	c22.55,13.44,45.743,19.163,71.479,15.803l2.561,12.277l0.091-0.048c14.549,40.504,42.668,58.342,71.237,58.801
	c37.95,0.612,61.472-15.862,74.3-58.296c-1.125,89.144-36.524,86.422-45.646,81.915c-13.421-6.632,9.08,49.429,55.788,27.411
	c23.931-11.282,28.466-88.21,17.507-164.389C295.053,301.63,293.186,297.561,293.186,297.561z M164.305,281.406
	c4.6-89.698,32.151-139.983,63.415-137.933c31.125,1.391,34.262,64.126,8.178,108.28c-14.542,23.931-41.231,42.17-72.246,54.46
	C163.388,298.385,163.718,290.094,164.305,281.406z"/>
</svg>
