<svg version="1.1" xmlns="http://www.w3.org/2000/svg" x="0px" y="0px" viewBox="0 0 351.77 164.18" enable-background="new 0 0 351.77 164.18" xml:space="preserve"><path fill="#6C100F" d="M335.532 86.26c-10.535-1.625-12.301-7.285-12.301-7.285s-1.721 0.861-2.02 1.138c-4.908 3.46-6.14 11.417-2.268 16.542 -2.976 6.45-7.217 13.479-11.533 18.585 -0.223 0.204-0.443 0.397-0.666 0.613 -5.306 5.135-10.293 6.994-17.81 4.138 -3.68-1.295-5.433-5.938-5.831-11.157 0.353-0.057 0.577-0.02 0.948-0.188 32.051-9.595 39.123-26.064 18.492-33.596 -13.847-4.922-30.109 3.387-35.846 18.703 -1.642 4.572-1.762 8.953-0.916 12.935 -3.317 5.5-7.683 9.355-10.547 8.647 -3.476-0.909-0.568-10.083 2.148-20.28 4.368-15.683 1.158-24.497-3.541-26.01 -5.602-1.545-14.434 2.231-21.681 16.121 1.156-7.537 2.333-13.554 4.397-21.173 16.433-4.538 31.935-17.185 38.205-35.63 9.275-27.164-19.238-29.926-35.277-13.503 -7.492 7.665-15.816 27.042-20.222 40.463 -3.751-0.249-7.276-0.273-10.549-0.928 2.116-6.115 5.348-11.798 5.348-11.798s-11.332-6.571-19.243 1.796c-0.831 1.078-3.042 4.551-3.728 6.071 -14.25-4.555-35.521-5.125-46.24-2.905 -14.955 3.195-14.743 20.85-8.819 26.214 0 0 8.907-9.666 20.729-12.303 7.916-1.798 19.466-0.226 30.573 1.492 -1.324 7.002-1.982 15.429-2.212 23.487 -0.276 6.592 0.506 13.703 2.083 19.865 -1.765 5.837-4.434 10.204-7.241 10.095 -3.457-0.073-3.584-9.805-3.459-20.042 0.196-15.644-4.204-20.368-15.883-21.501 -13.466-1.502-27.438 11.548-27.546 28.324 -0.136 15.977 9.347 26.682 18.572 24.349 8.446-2.194 9.379-11.772 10.041-19.005 2.313 9.113 6.466 15.03 12.528 15.556 6.753 0.484 11.872-4.336 15.045-11.417 2.002 4.946 4.624 8.571 7.652 9.651 4.917 1.802 10.073-1.339 14.097-6.694 -0.039 2.715 0.328 3.891 0.328 3.891 8.026 3.435 15.021 0.502 18.776-20.515 7.222-16.492 10.08-20.806 12.208-20.169 2.243 0.526 1.091 4.559-2.972 17.878 -4.576 15.11 1.763 25.045 9.521 26.323 6.066 0.93 13.484-3.666 18.637-11.128 3.092 6.77 8.801 11.732 13.445 13.405 14.045 4.9 24.192-0.688 30.332-8.273 0.002-0.003 0.004-0.006 0.006-0.008 0.067-0.071 0.134-0.134 0.202-0.21 4.65-5.268 8.856-11.107 12.077-16.721 0.961 0.35 2.06 0.616 3.321 0.689l1.015 0.13c-16.969 26.347-16.285 45.581-2.429 51.732 8.192 3.614 15.93-2.881 16.003-7.979 0 0-3.77 1.644-7.63-1.617 -4.964-4.46 3.03-24.961 14.964-42.53C354.593 92.045 352.763 89.043 335.532 86.26zM285.369 95.118c3.278-7.361 8.964-18.906 13.333-16.924 3.607 1.741-2.259 17.838-15.419 25.399C283.557 100.546 284.259 97.684 285.369 95.118zM255.933 16.653c9.627-10.645 16.56-4.986 12.064 7.753 -4.375 12.516-15.737 23.179-27.584 25.835C244.333 37.822 250.293 23.023 255.933 16.653zM159.667 93.972c-0.994 15.672-1.745 24.987-5.128 24.672 -3.627-0.386-4.124-11.545-3.407-20.396 0.798-11.619 2.043-18.153 6.592-18.39 2.749-0.031 1.556 2.936 1.658 8.657C159.497 90.444 159.48 92.284 159.667 93.972zM211.43 106.866c-2.316 5.343-5.23 9.258-7.751 8.528 -3.243-1.019-1.667-19.025-0.634-30.198 0.576-7.968 1.505-14.149 2.608-19.437 4.382 0.503 8.275 0.584 11.118 0.051C213.644 79.794 212.184 93.768 211.43 106.866z"/><path fill="#6C100F" d="M125.408 86.75c-7.516-1.738-12.405 1.799-16.005 20.199 -2.278 13.21-9.709 23.9-18.367 24.035 -9.462 0.147-14.762-9.799-16.81-25.008 14.688-9.074 27.977-20.71 35.115-33.776 17.828-31.918 10.273-55.111-6.802-55.989C82.714 15.189 50.376 40.684 50.009 87c0.025 3.057 0.133 5.978 0.299 8.706 -5.075 0.342-10.629-0.266-14.065-2.251 -15.71-9.246-6.657-26.629 4.059-30.743 0 0-15.801-23.306-29.266-10.094C-1.943 65.367-0.478 90.186 23.434 104.422c9.422 5.616 19.113 8.007 29.866 6.603l1.07 5.13 0.038-0.02c6.079 16.924 17.828 24.377 29.765 24.569 15.857 0.256 25.685-6.628 31.045-24.358 -0.47 37.247-15.261 36.11-19.072 34.227 -5.608-2.771 3.794 20.653 23.31 11.453 9.999-4.714 11.894-36.857 7.315-68.687C126.189 88.449 125.408 86.75 125.408 86.75zM71.558 80c1.922-37.479 13.434-58.49 26.497-57.633 13.005 0.581 14.316 26.794 3.417 45.243 -6.076 9.999-17.228 17.62-30.187 22.755C71.174 87.094 71.312 83.63 71.558 80z"/><path fill="#EFAD5F" d="M332.627 81.567c-10.535-1.625-12.301-7.285-12.301-7.285s-1.721 0.861-2.02 1.138c-4.908 3.46-6.14 11.417-2.268 16.542 -2.976 6.45-7.217 13.479-11.533 18.585 -0.223 0.204-0.443 0.397-0.666 0.613 -5.306 5.135-10.293 6.994-17.81 4.138 -3.68-1.295-5.433-5.938-5.831-11.157 0.353-0.057 0.577-0.02 0.948-0.188 32.051-9.595 39.123-26.064 18.492-33.596 -13.847-4.922-30.109 3.387-35.846 18.703 -1.642 4.572-1.762 8.953-0.916 12.935 -3.317 5.5-7.683 9.355-10.547 8.647 -3.476-0.909-0.568-10.083 2.148-20.28 4.368-15.683 1.158-24.497-3.541-26.01 -5.602-1.545-14.434 2.231-21.681 16.121 1.156-7.537 2.333-13.554 4.397-21.173 16.433-4.538 31.935-17.185 38.205-35.63 9.275-27.164-19.238-29.926-35.277-13.503 -7.492 7.665-15.816 27.042-20.222 40.463 -3.751-0.249-7.276-0.273-10.549-0.928 2.116-6.115 5.348-11.798 5.348-11.798s-11.332-6.571-19.243 1.796c-0.831 1.078-3.042 4.551-3.728 6.071 -14.25-4.555-35.521-5.125-46.24-2.905 -14.955 3.195-14.743 20.85-8.819 26.214 0 0 8.907-9.666 20.729-12.303 7.916-1.798 19.466-0.226 30.573 1.492 -1.324 7.002-1.982 15.429-2.212 23.487 -0.276 6.592 0.506 13.703 2.083 19.865 -1.765 5.837-4.434 10.204-7.241 10.095 -3.457-0.073-3.584-9.805-3.459-20.042 0.196-15.644-4.204-20.368-15.883-21.501 -13.466-1.502-27.438 11.548-27.546 28.324 -0.136 15.977 9.347 26.682 18.572 24.349 8.446-2.194 9.379-11.772 10.041-19.005 2.313 9.113 6.466 15.03 12.528 15.556 6.753 0.484 11.872-4.336 15.045-11.417 2.002 4.946 4.624 8.571 7.652 9.651 4.917 1.802 10.073-1.339 14.097-6.694 -0.039 2.715 0.328 3.891 0.328 3.891 8.026 3.435 15.021 0.502 18.776-20.515 7.222-16.492 10.08-20.806 12.208-20.169 2.243 0.526 1.091 4.559-2.972 17.878 -4.577 15.11 1.763 25.045 9.521 26.323 6.066 0.93 13.484-3.666 18.637-11.128 3.092 6.77 8.801 11.732 13.445 13.405 14.045 4.9 24.192-0.688 30.332-8.273 0.002-0.003 0.004-0.006 0.006-0.008 0.067-0.071 0.134-0.134 0.202-0.21 4.65-5.268 8.856-11.107 12.077-16.721 0.961 0.35 2.06 0.616 3.321 0.689l1.015 0.13c-16.969 26.347-16.285 45.581-2.429 51.732 8.192 3.614 15.93-2.881 16.003-7.979 0 0-3.77 1.644-7.63-1.617 -4.964-4.46 3.03-24.961 14.964-42.53C351.687 87.352 349.857 84.35 332.627 81.567zM282.464 90.426c3.278-7.361 8.964-18.906 13.333-16.924 3.607 1.741-2.259 17.838-15.419 25.399C280.652 95.853 281.353 92.991 282.464 90.426zM253.028 11.96c9.627-10.645 16.56-4.986 12.064 7.753 -4.375 12.516-15.737 23.179-27.584 25.835C241.428 33.13 247.388 18.33 253.028 11.96zM156.762 89.279c-0.994 15.672-1.745 24.987-5.128 24.672 -3.627-0.386-4.124-11.545-3.407-20.396 0.798-11.619 2.043-18.153 6.592-18.39 2.749-0.031 1.556 2.936 1.658 8.657C156.592 85.752 156.575 87.591 156.762 89.279zM208.524 102.173c-2.316 5.343-5.23 9.258-7.751 8.528 -3.243-1.019-1.667-19.025-0.634-30.198 0.577-7.968 1.505-14.149 2.608-19.437 4.382 0.503 8.275 0.584 11.118 0.051C210.739 75.101 209.278 89.075 208.524 102.173z"/><path fill="#EFAD5F" d="M122.503 82.057c-7.516-1.738-12.405 1.799-16.005 20.199 -2.278 13.21-9.709 23.9-18.367 24.035 -9.462 0.147-14.762-9.799-16.81-25.008 14.688-9.074 27.977-20.71 35.115-33.776 17.828-31.918 10.273-55.111-6.802-55.989 -19.827-1.022-52.165 24.473-52.531 70.79 0.025 3.057 0.133 5.978 0.299 8.706 -5.075 0.342-10.629-0.266-14.065-2.251 -15.71-9.246-6.657-26.629 4.059-30.743 0 0-15.801-23.306-29.266-10.094C-4.848 60.675-3.384 85.494 20.528 99.729c9.422 5.616 19.113 8.007 29.866 6.603l1.07 5.13 0.038-0.02c6.079 16.924 17.828 24.377 29.765 24.569 15.857 0.256 25.685-6.628 31.045-24.358 -0.47 37.247-15.261 36.11-19.072 34.227 -5.608-2.771 3.794 20.653 23.31 11.453 9.999-4.714 11.894-36.857 7.315-68.687C123.283 83.757 122.503 82.057 122.503 82.057zM68.652 75.307c1.922-37.479 13.434-58.49 26.497-57.633 13.005 0.581 14.316 26.794 3.417 45.243 -6.076 9.999-17.228 17.62-30.187 22.755C68.269 82.401 68.407 78.937 68.652 75.307z"/><path fill="#F2F2D4" d="M199.006 148.504c-0.388-0.441-3.243-8.39-3.564-9.378 -0.062 3.069-0.247 6.159-0.186 9.207 -0.005 0.537-0.129 0.747-0.599 0.95l0.026-0.036c-0.262 0.138-0.538 0.183-0.814 0.229 -0.215 0.036-0.553 0.092-0.814 0.04 -0.615-0.088-4.383-8.612-4.837-9.83 -0.728-1.93-1.349-3.972-2.02-5.942 -0.259-0.809-0.829-2.166-0.966-2.994 -0.041-0.246 1.556-0.509 1.801-0.549 0.553-0.092 1.106-0.182 1.699-0.217 0.284 0.962 0.385 1.955 0.634 2.892 0.183 0.726 0.519 1.428 0.795 2.139l1.592 4.31c0.285 0.773 0.545 1.581 0.743 2.401 0.099-1.31-0.115-9.505 0.222-9.939 0.21-0.255 0.635-0.357 0.912-0.403 0.43-0.071 1.151-0.095 1.534 0.125 0.557 0.318 3.733 9.256 3.986 10.412 0.026-2.337-0.37-4.922-0.457-7.367 -0.034-0.783-0.285-6.702 0.192-7.064 0.189 0 0.348 0.006 0.532-0.025 0.061-0.01 0.148-0.056 0.209-0.066 0.43-0.071 1.632 0.141 2.087 0.224 0.16 2.686 0.236 5.448 0.205 8.134 -0.027 0.982-0.093 11.683-0.18 11.918 -0.257 0.547-1.04 0.77-1.593 0.862C199.779 148.597 199.338 148.607 199.006 148.504zM215.602 142.103c0.102 1.022 0.139 2.332-0.592 3.156l0.031-0.003 -0.114 0.105c-1.298 1.099-1.252 1.564-3.264 1.764 -1.207 0.121-2.205-0.155-3.239-0.802l0.034 0.028c-0.6-0.378-0.969-0.935-1.282-1.561l0.034 0.028 -0.114-0.208c-1.399-2.737-1.825-8.574-1.999-10.308 -0.451-4.52 1.182-7.279 4.711-7.632 1.115-0.112 2.409 0.635 3.202 1.369l-0.031 0.003c1.247 0.908 1.573 2.908 1.718 4.363C215.018 135.626 215.28 138.883 215.602 142.103zM210.43 143.871c0.335 0.217 0.839 0.26 1.211 0.223 0.309-0.031 0.709-0.102 0.83-0.458 0.232-0.805 0.165-5.239 0.06-6.292 -0.093-0.929-0.281-1.88-0.377-2.839 -0.062-0.619-0.058-1.214-0.12-1.833 -0.118-1.177-0.504-2.858-2.022-2.707 -2.322 0.232-1.641 4.855-1.438 6.899 0.118 1.176 0.384 2.276 0.498 3.421 0.111 1.115 0.381 2.87 1.362 3.617L210.43 143.871zM220.666 146.024c-0.124 0.006-0.249 0.011-0.375-0.045l0.127 0.056 -0.156 0.007c-0.559 0.026-1.397 0.096-1.585-0.611l0.001 0.031c-0.08-0.37-0.145-1.083-0.179-1.829 -0.042-0.901-0.056-1.867-0.078-2.364 -0.079-1.679-0.66-14.796-0.035-15.448 0.356-0.36 2.156-0.506 2.623-0.528 1.243-0.058 3.677 0.047 4.656 0.998 1.175 1.129 1.721 5.495 1.797 7.143 0.071 1.523-0.039 3.179-1.169 4.322 0.268 0.392 0.598 0.782 0.803 1.177 0.551 1.127 0.728 4.919 0.791 6.286l0.022 0.467c-0.331 0.265-0.76 0.409-1.226 0.431 -1.43 0.067-2.046 0.22-2.129-1.583 -0.036-0.777 0.019-1.589-0.017-2.367 -0.061-1.305 0.097-3.244-1.829-3.154 -0.435 0.02-0.898 0.104-1.329 0.218 0.052 1.119 0.157 6.036-0.433 6.748C220.852 146.015 220.759 146.02 220.666 146.024zM220.836 128.292c0.073 1.554 0.082 3.111 0.154 4.634l0.078 1.678c0.025 0.529 0.08 1.056 0.138 1.614l1.088-0.051c1.057-0.049 2.449-0.27 2.478-1.642l-0.03 0.032c-0.075-1.616-0.155-3.326-0.445-4.87 -0.28-1.326-1.536-1.548-2.717-1.493C221.33 128.207 221.082 128.218 220.836 128.292zM237.365 126.71c0.877-0.866 0.785-1.053 1.874-1.047 0.591 0.004 1.15 0.163 1.146 0.879 -0.005 0.871-3.077 4.494-3.736 5.33 -0.283 0.403-0.846 0.959-1.035 1.394 1.198 2.683 2.332 5.521 3.342 8.297v-0.031c0.277 0.655 1.319 3.213 1.316 3.773l-0.001 0.125c-0.251 0.403-1.248 0.521-1.683 0.519 -0.28-0.002-1.027-0.037-1.243-0.257 -0.465-0.438-3.247-8.67-3.613-9.855l-0.126 0.124c-0.02 3.267-0.288 6.502-0.307 9.8 -0.872 0.275-1.589 0.24-2.46 0.234 -0.245-0.717-0.297-2.398-0.288-3.923 0.031-5.072 0.152-9.646 0.181-14.593 0.004-0.622 0.101-1.275 0.385-1.834 0.466 0.003 0.934-0.088 1.401-0.085 1.431 0.009 1.145 1.158 1.139 2.092 -0.008 1.307-0.14 2.644-0.148 3.982C234.856 130.056 236.172 128.383 237.365 126.71zM253.489 140.4c0.042 0.346 0.052 0.689 0.032 1.031 -0.216 3.634-2.712 5.231-5.569 5.061 -2.33-0.138-4.603-2.269-4.457-4.723 0.071-1.211 0.946-1.222 1.908-1.164 0.466 0.028 0.923 0.18 1.344 0.454 -0.059 0.994 0.421 2.363 1.601 2.433 1.087 0.065 1.914-0.727 1.976-1.783 0.118-1.988-2.584-4.767-3.942-6.033l0.029 0.033c-1.773-1.633-2.576-2.803-2.428-5.288 0.173-2.92 2.351-4.941 5.333-4.763 1.397 0.083 3.157 0.905 3.698 2.278 0.271 0.702 0.799 1.762 0.753 2.539 -0.056 0.932-1.463 1.004-2.177 0.961 -1.988-0.119-0.339-2.67-2.98-2.827 -0.341-0.02-0.766 0.297-0.998 0.533l0.031 0.002c-0.464 0.471-0.783 1.107-0.822 1.759 -0.009 0.155 0.013 0.312 0.035 0.469 0.252 2.041 5.978 5.344 6.63 9.061L253.489 140.4zM263.052 137.307c0.396-2.679 1.094-5.263 1.392-7.922 0.094-0.835 0.198-1.481 1.188-1.369 0.989 0.111 1.745 0.635 1.623 1.717 -0.354 3.154-0.957 6.28-1.466 9.417 -0.447 2.862-0.836 5.761-1.377 8.613 -0.556-0.063-1.103 0.064-1.69-0.003 -1.083-0.122-0.895-1.509-0.795-2.406 0.198-1.762 0.466-3.579 0.757-5.332 -1.051-0.118-2.057-0.357-3.078-0.472l-0.216-0.024c-0.296 2.346-0.793 7.332-1.626 7.489 -0.258 0.065-0.88 0.026-1.128-0.002 -0.309-0.035-1.136-0.191-1.084-0.655 0.129-1.144 0.468-2.484 0.62-3.844l0.251-2.226c0.411-3.649 1.065-7.239 1.472-10.857 0.034-0.309 0.007-0.626 0.042-0.935 0.154-1.36 0.868-1.312 1.92-1.193 1.082 0.122 1.116 0.376 1.012 1.304 -0.195 1.731-0.509 3.418-0.708 5.18l-0.278 2.474 -0.063 0.557c1.021 0.115 2.027 0.353 3.048 0.468L263.052 137.307zM278.032 145.408c-0.166 1.013-0.47 2.288-1.39 2.894l0.031 0.005 -0.137 0.072c-1.538 0.725-1.614 1.186-3.61 0.857 -1.198-0.196-2.088-0.721-2.919-1.614l0.026 0.036c-0.482-0.521-0.693-1.155-0.833-1.84l0.026 0.036 -0.057-0.231c-0.642-3.006 0.46-8.753 0.743-10.473 0.736-4.483 3.027-6.725 6.528-6.149 1.105 0.181 2.161 1.238 2.736 2.152l-0.03-0.005c0.969 1.2 0.765 3.216 0.527 4.659C279.147 139.001 278.556 142.215 278.032 145.408zM272.579 145.774c0.267 0.296 0.743 0.469 1.112 0.529 0.307 0.05 0.71 0.085 0.92-0.227 0.434-0.717 1.517-5.017 1.689-6.061 0.15-0.921 0.216-1.888 0.372-2.84 0.101-0.614 0.258-1.187 0.358-1.802 0.192-1.167 0.254-2.891-1.25-3.138 -2.303-0.378-2.845 4.263-3.177 6.289 -0.192 1.167-0.22 2.298-0.406 3.434 -0.181 1.105-0.377 2.871 0.377 3.846L272.579 145.774zM283.206 144.381c-0.154 0.731-0.24 1.444-0.381 2.114 -0.25 1.188-0.53 2.369-0.84 3.544 -0.184 0.724-0.495 0.691-1.53 0.473 -0.67-0.14-1.352-0.379-1.185-1.171 0.986-4.69 2.368-9.297 3.354-13.987 0.237-1.127 0.419-2.297 0.657-3.424 0.396-1.888 2.101-1.371 4.019-0.968 4.873 1.024 4.256 4.711 3.393 8.823 -0.564 2.679-1.456 5.259-5.232 4.465 -0.7-0.147-1.345-0.41-2.076-0.564C283.302 143.924 283.251 144.168 283.206 144.381zM288.458 134.673l0.031 0.007c-0.458-0.542-1.255-0.836-1.895-0.971 -0.335-0.07-0.714-0.086-1.055-0.126 -0.206 1.133-0.406 2.236-0.637 3.332 -0.313 1.492-0.651 2.948-0.952 4.379l0.275 0.058c0.578 0.122 1.759 0.402 2.267 0.254 0.912-0.253 1.586-2.401 1.753-3.193C288.487 137.255 288.753 135.085 288.458 134.673zM301.432 148.996c-0.025 0.347-0.08 0.686-0.165 1.018 -0.905 3.526-3.659 4.618-6.432 3.906 -2.26-0.58-4.086-3.105-3.475-5.486 0.302-1.175 1.161-1.019 2.095-0.779 0.452 0.116 0.874 0.353 1.233 0.702 -0.247 0.965-0.037 2.4 1.108 2.694 1.055 0.271 2.018-0.35 2.281-1.375 0.494-1.929-1.628-5.172-2.721-6.673l0.022 0.038c-1.429-1.941-1.995-3.243-1.375-5.654 0.727-2.833 3.25-4.402 6.143-3.66 1.356 0.348 2.927 1.49 3.197 2.941 0.131 0.74 0.449 1.882 0.255 2.636 -0.232 0.904-1.627 0.707-2.32 0.529 -1.929-0.495 0.175-2.686-2.386-3.343 -0.332-0.085-0.809 0.146-1.082 0.333l0.03 0.008c-0.545 0.374-0.98 0.937-1.142 1.57 -0.039 0.151-0.047 0.309-0.056 0.467 -0.141 2.052 4.851 6.385 4.782 10.158L301.432 148.996z"/></svg>